<?xml version="1.0"?><svg version="1.2" baseProfile="tiny-ps" viewBox="0 0 300 300" xmlns="http://www.w3.org/2000/svg" xmlns:xlink="http://www.w3.org/1999/xlink"><title>Aquaridge Plumbing</title><g><g fill="#4cbfaf" transform="matrix(.1 0 0 -.1 0 300)"><path d="M1388 2414c-35-18-48-43-48-90v-38l27-28 27-28h27c16 0 40 5 54 12l26 12 15 27c8 16 14 42 14 59v32l-29 29-29 29h-29c-15-1-40-7-55-16zm491-35c-61-14-139-48-188-81-25-18-114-98-198-178l-152-145-56-34-56-34-52-14c-66-17-112-17-173 2l-49 14-75 62-75 62-70 33c-38 19-75 34-81 34h-11l-7-30-6-31 11-49 11-50 44-55c25-30 70-75 102-101l57-47 65-31 65-30 92-4 93-4 49 16c28 9 76 31 108 50l58 34 175 158c96 86 195 170 220 186l45 29 68 21 69 20 111-4 112-5 55-21c30-12 86-40 124-62s71-38 74-36c2 3-6 31-18 62l-24 57-57 62-58 62-58 30c-32 17-82 38-112 47l-55 16-70-1c-39-1-87-5-107-10zm-846-139c-41-25-63-59-70-108l-5-39 18-38 17-37 31-19 31-19h96l30 15 30 16 19 32 20 32v93l-26 32c-15 17-39 37-55 45l-28 15h-76l-32-20zm903-176-58-14-68-36-68-36-138-126c-182-169-228-206-295-242l-56-30-69-16-69-16-59 7c-32 3-83 15-112 26l-54 20-77 57c-139 100-216 152-226 152h-10l6-71 6-70 25-44 25-43 53-47c29-26 82-68 117-93l63-45 65-24 65-23 72-6 71-6 68 16c125 29 181 67 401 269l131 120 73 48 72 47 70 16c159 36 291 3 443-112 37-29 70-52 73-52 2 0 4 30 4 68v67l-19 40-18 40-53 48-52 47-62 29c-109 52-223 63-340 35zm56-319c-129-28-192-70-413-274-140-129-215-181-309-213l-65-23h-190l-53 19-54 18-140 94c-140 93-174 111-185 100-4-3 1-34 11-68l17-63 31-47c39-61 118-133 199-181l64-38 70-21 70-22 90 1h90l80 27 80 27 65 43c36 24 116 90 179 147 175 160 221 198 283 229l56 29 64 11 65 10 59-11 59-11 65-31 65-32 59-58c32-32 61-55 64-53 2 3 7 37 10 75l5 70-26 43c-14 24-48 65-76 91l-52 48-62 29c-60 29-147 51-191 49-11 0-49-7-84-14zm2-323c-106-32-140-56-399-295l-117-108-51-29c-29-17-81-39-117-51l-65-20h-100l-101-1-63 22-64 21-115 65c-63 36-117 63-120 60-9-9 17-57 61-115 79-102 217-197 331-227l51-14h85c107 1 156 12 247 57l73 35 121 112c67 61 156 142 198 180l76 69 50 23 50 24h140l40-19 41-18 42-48 43-49 13 15c7 8 26 38 42 67l28 54-24 44-23 45-38 30c-20 16-63 41-94 55l-57 26-62 4-61 4-61-18zm20-326-37-37 6-42 6-42 31-27 30-28h26c14 0 38 7 54 15l30 15 15 30c8 16 15 40 15 54v26l-27 30-28 31-42 6-42 6-37-37zm-264-219c-13-7-30-24-38-37l-13-25 6-30 5-29 22-23 21-23h78l24 25 25 24v38l-1 38-13 17c-13 17-57 38-79 38-7 0-23-6-37-13z"/></g><g fill="#57827f" transform="matrix(.1 0 0 -.1 0 300)"><path d="M1410 2420v-9l14 5 14 6 27-14 26-14-40-19c-23-10-41-21-41-25s-13-10-30-12l-30-5v18c0 10 7 24 15 33 8 8 15 18 15 23-1 4-10-3-20-16l-20-23v-82l27-28 27-28h27c16 0 40 5 54 12l26 12 15 27c8 16 14 42 14 59v32l-29 29-29 29h-62v-10zm770-74c0-2 15-14 34-25 19-12 41-32 50-45l15-24-27 3c-15 2-39 8-55 14-15 6-62 13-105 17l-77 6-79-16-79-16-61-28c-70-33-111-66-253-202-56-54-134-123-175-153l-73-56-77-25-77-26h-38c-21 0-75 7-121 16l-83 17-20-22c-23-24-32-26-51-8-7 7-26 20-43 30l-30 19 40-36c22-20 73-53 114-73l73-37 94-4 94-4 49 16c28 9 76 31 108 50l58 34 175 158c96 86 195 170 220 186l45 29 68 21 69 20 111-4 112-5 55-21c30-12 86-40 124-62s71-38 74-36c2 3-6 31-18 62l-24 57-57 62-58 61-50 28c-28 15-51 25-51 22zm-990-118 12-17-22-31c-13-18-37-47-54-66l-31-34-52-20-52-20-10 18c-6 9-11 13-11 9 0-17 35-59 61-73l28-14h92l30 15 30 16 19 32 20 32v95l-36 38c-20 20-31 29-24 20zm-228-123v-30l5 18c2 9 2 23 0 30l-5 12v-30zm974-41-58-14-68-36-68-36-138-126c-182-169-228-206-295-242l-56-30-69-16-69-16-59 7c-32 3-83 15-112 26l-54 20-77 57c-139 100-216 152-226 152h-10l6-71 6-70 25-44 25-43 53-47c29-26 82-68 117-93l63-45 65-24 65-23 72-6 71-6 68 16c125 29 181 67 401 269l131 120 73 48 72 47 70 16c159 36 291 3 443-112 37-29 70-52 73-52 2 0 4 30 4 68v67l-19 40-18 40-53 48-52 47-62 29c-109 52-223 63-340 35zm56-319c-129-28-192-70-413-274-140-129-215-181-309-213l-65-23h-190l-53 19-54 18-140 94c-140 93-174 111-185 100-4-3 1-34 11-68l17-63 31-47c39-61 118-133 199-181l64-38 70-21 70-22 90 1h90l80 27 80 27 65 43c36 24 116 90 179 147 175 160 221 198 283 229l56 29 64 11 65 10 59-11 59-11 65-31 65-32 59-58c32-32 61-55 64-53 2 3 7 37 10 75l5 70-26 43c-14 24-48 65-76 91l-52 48-62 29c-60 29-147 51-191 49-11 0-49-7-84-14zm2-323c-106-32-140-56-399-295l-117-108-51-29c-29-17-81-39-117-51l-65-20h-100l-101-1-63 22-64 21-115 65c-63 36-117 63-120 60-9-9 17-57 61-115 79-102 217-197 331-227l51-14h85c107 1 156 12 247 57l73 35 121 112c67 61 156 142 198 180l76 69 50 23 50 24h140l40-19 41-18 42-48 43-49 13 15c7 8 26 38 42 67l28 54-24 44-23 45-38 30c-20 16-63 41-94 55l-57 26-62 4-61 4-61-18zm20-326-37-37 6-42 6-42 31-27 30-28h26c14 0 38 7 54 15l30 15 15 30c8 16 15 40 15 54v26l-27 30-28 31-42 6-42 6-37-37zm-264-219c-13-7-30-24-38-37l-13-25 6-30 5-29 22-23 21-23h78l24 25 25 24v38l-1 38-13 17c-13 17-57 38-79 38-7 0-23-6-37-13z"/></g><g fill="#278a7e" transform="matrix(.1 0 0 -.1 0 300)"><path d="M1410 2420v-9l14 5 14 6 27-14 26-14-40-19c-23-10-41-21-41-25s-13-10-30-12l-30-5v18c0 10 7 24 15 33 8 8 15 18 15 23-1 4-10-3-20-16l-20-23v-82l27-28 27-28h27c16 0 40 5 54 12l26 12 15 27c8 16 14 42 14 59v32l-29 29-29 29h-62v-10zm770-74c0-2 15-14 34-25 19-12 41-32 50-45l15-24-27 3c-15 2-39 8-55 14-15 6-62 13-105 17l-77 6-79-16-79-16-61-28c-70-33-111-66-253-202-56-54-134-123-175-153l-73-56-77-25-77-26h-38c-21 0-75 7-121 16l-83 17-20-22c-23-24-23-24-52-10l-22 10 25-22c14-12 54-36 90-53l65-30 92-4 93-4 49 16c28 9 76 31 108 50l58 34 175 158c96 86 195 170 220 186l45 29 68 21 69 20 111-4 112-5 55-21c30-12 86-40 124-62s71-38 74-36c2 3-6 31-18 62l-24 57-57 62-58 61-50 28c-28 15-51 25-51 22zm-991-159c-13-15-40-45-59-67l-35-40-52-20-52-20-10 18c-6 9-11 13-11 9 0-17 35-59 61-73l28-14h96l32 20 32 19 16 30 15 30v89l-19 23-19 23-23-27zm-227-82v-30l5 18c2 9 2 23 0 30l-5 12v-30zm974-41-58-14-68-36-68-36-138-126c-182-169-228-206-295-242l-56-30-69-16-69-16-59 7c-32 3-83 15-112 26l-54 20-77 57c-139 100-216 152-226 152h-10l6-71 6-70 25-44 25-43 53-47c29-26 82-68 117-93l63-45 65-24 65-23 72-6 71-6 68 16c125 29 181 67 401 269l131 120 73 48 72 47 70 16c159 36 291 3 443-112 37-29 70-52 73-52 2 0 4 30 4 68v67l-19 40-18 40-53 48-52 47-62 29c-109 52-223 63-340 35zm56-319c-129-28-192-70-413-274-68-63-151-131-184-152-33-22-57-39-52-39 24 0 100 57 247 186 63 55 129 110 146 121l30 22 15-10 14-9h-25v-14c0-8 5-18 12-22l11-7-7 12-8 12 12 14 12 15-16 6-16 6 6 9c3 5 20 9 37 9h98l-5 8-5 8h17c9 0 31 1 47 2l30 2-12 8-13 8 35 1 35 1 6-9 5-9h-26c-33 0-138-44-190-80-22-15-89-74-150-130-60-55-144-129-185-162l-75-61-61-28c-33-15-89-35-125-44l-64-17-95 5-95 6-50 15-50 16-3-10c-2-6-10-10-18-10s-14-5-14-11v-11l-27 5-28 5 20-15c36-27 110-61 170-79l60-18 90 1h90l80 27 80 27 65 43c36 24 116 90 179 147 175 160 221 198 283 229l56 29 64 11 65 10 59-11 59-11 65-31 65-32 59-58c32-32 61-55 64-53 2 3 7 37 10 75l5 70-26 43c-14 24-48 65-76 91l-52 48-62 29c-60 29-147 51-191 49-11 0-49-7-84-14zm-153-132-14-18 20 15c11 8 22 16 24 17 2 2 0 3-6 3s-17-8-24-17zM580 1453v-18l8 10c4 6 11 13 16 18l9 7h-33v-17zm1414-31c-106-32-140-56-399-295l-117-108-51-29c-29-17-81-39-117-51l-65-20h-100l-101-1-63 22-64 21-115 65c-63 36-117 63-120 60-9-9 17-57 61-115 79-102 217-197 331-227l51-14h85c107 1 156 12 247 57l73 35 121 112c67 61 156 142 198 180l76 69 50 23 50 24h140l40-19 41-18 42-48 43-49 13 15c7 8 26 38 42 67l28 54-24 44-23 45-38 30c-20 16-63 41-94 55l-57 26-62 4-61 4-61-18zM695 1221c22-23 54-52 70-63 35-25 30-20-50 52l-60 54 40-43zm493 12c7-3 16-2 19 1 4 3-2 6-13 5l-19-1 13-5zm826-137-37-37 6-42 6-42 31-27 30-28h26c14 0 38 7 54 15l30 15 15 30c8 16 15 40 15 54v26l-27 30-28 31-42 6-42 6-37-37zm-264-219c-13-7-30-24-38-37l-13-25 6-30 5-29 22-23 21-23h78l24 25 25 24v38l-1 38-13 17c-13 17-57 38-79 38-7 0-23-6-37-13z"/></g><g fill="#276662" transform="matrix(.1 0 0 -.1 0 300)"><path d="m1507 2309-17-31-16 6-15 6 6-10 6-10h-10c-6 0-11-7-11-15v-15h-53l-21 18-21 17 19-22 19-23h29c16 0 42 7 57 15l28 14 13 30c6 17 10 35 9 40l-4 11-18-31zm864-118 12-24-17-12c-9-7-16-16-16-20 0-5 10 0 23 11l22 19-19-22-19-22-17 9c-10 5-20 7-22 4-3-2-25 5-49 16s-51 20-59 20 11-11 43-24 85-40 119-60c33-20 63-34 66-32 7 8-36 108-59 136l-20 25 12-24zm-1133-60 4-58-35-36-34-36-27-7c-15-3-48-4-73-1l-46 5 14-9c8-5 36-9 62-9h48l30 15 30 16 19 32 20 32v45c0 25-4 51-8 58l-8 12 4-59zm755 52c26-2 68-2 95 0l47 3h-190l48-3zm-148-28-60-25-13 5-13 5 5-8c3-5-4-16-15-26l-20-17-12 7-12 7 7-8 7-7-14-14c-7-8-16-14-20-14-3 0-22-15-41-34l-36-35-19 2-19 1v31l-20-30c-11-16-20-25-20-19 0 5 6 16 13 24 21 23-66-47-117-95-26-25-50-45-53-45-2 0-11-6-18-14l-14-14 7-7 7-8-18 6-18 7 6-10 6-10h-20l2-20c1-21 17-29 17-8 0 6 3 9 6 6s-1-16-8-27l-13-21-45-22c-25-11-70-27-100-34l-55-14 53 5 53 4 62 32c67 33 127 75 126 87-3 19 3 30 18 36l17 7-19-21c-10-11-15-20-11-20 5 0 77 63 162 140 177 161 212 186 303 217l66 22-20 1c-11 0-47-12-80-25zm313 18c6-2 18-2 25 0l12 5h-50l13-5zm-222-109-58-14-68-36-68-36-138-126c-182-169-228-206-295-242l-56-30-69-16-69-16-59 7c-32 3-83 15-112 26l-54 20-77 57c-139 100-216 152-226 152h-10l6-71 6-70 25-44 25-43 53-47c29-26 82-68 117-93l63-45 65-24 65-23 72-6 71-6 68 16c125 29 181 67 401 269l131 120 73 48 72 47 70 16c159 36 291 3 443-112 37-29 70-52 73-52 2 0 4 30 4 68v67l-19 40-18 40-53 48-52 47-62 29c-109 52-223 63-340 35zM611 1771l9 14 6-22 6-22 14 6 14 5v-11c0-6-6-11-14-11s-22-3-32-7l-17-6 6 17 7 17-10-6-10-6 1 23 1 23 5-14 5-13 9 13zm1381-26c-129-28-192-70-413-274-68-63-151-131-184-152-33-22-57-39-52-39 24 0 100 57 247 186 63 55 129 110 146 121l30 22 15-10 14-9h-25v-14c0-8 5-18 12-22l11-7-7 12-8 12 12 14 12 15-16 6-16 6 6 9c3 5 20 9 37 9h98l-5 8-5 8h17c9 0 31 1 47 2l30 2-12 8-13 8 35 1 35 1 6-9 5-9h-26c-33 0-138-44-190-80-22-15-89-74-150-130-60-55-144-129-185-162l-75-61-61-28c-33-15-89-35-125-44l-64-17-95 5-95 6-50 15-50 16-3-10c-2-6-10-10-18-10s-14-5-14-11v-11l-27 5-28 5 20-15c36-27 110-61 170-79l60-18 90 1h90l80 27 80 27 65 43c36 24 116 90 179 147 175 160 221 198 283 229l56 29 64 11 65 10 59-11 59-11 65-31 65-32 59-58c32-32 61-55 64-53 2 3 7 37 10 75l5 70-26 43c-14 24-48 65-76 91l-52 48-62 29c-60 29-147 51-191 49-11 0-49-7-84-14zm-964-72c12-2 32-2 45 0l22 4h-90l23-4zm811-60-14-18 20 15c11 8 22 16 24 17 2 2 0 3-6 3s-17-8-24-17zM580 1453v-18l8 10c4 6 11 13 16 18l9 7h-33v-17zm1414-31c-106-32-140-56-399-295l-117-108-51-29c-29-17-81-39-117-51l-65-20h-100l-101-1-63 22-64 21-115 65c-63 36-117 63-120 60-9-9 17-57 61-115 79-102 217-197 331-227l51-14h85c107 1 156 12 247 57l73 35 121 112c67 61 156 142 198 180l76 69 50 23 50 24h140l40-19 41-18 42-48 43-49 13 15c7 8 26 38 42 67l28 54-24 44-23 45-38 30c-20 16-63 41-94 55l-57 26-62 4-61 4-61-18zM695 1221c22-23 54-52 70-63 35-25 30-20-50 52l-60 54 40-43zm493 12c7-3 16-2 19 1 4 3-2 6-13 5l-19-1 13-5zm826-137-37-37 6-42 6-42 31-27 30-28h26c14 0 38 7 54 15l30 15 15 30c8 16 15 40 15 54v26l-27 30-28 31-42 6-42 6-37-37zm-264-219c-13-7-30-24-38-37l-13-25 6-30 5-29 22-23 21-23h78l24 25 25 24v38l-1 38-13 17c-13 17-57 38-79 38-7 0-23-6-37-13z"/></g><g fill="#133d3c" transform="matrix(.1 0 0 -.1 0 300)"><path d="M2023 2073c20-2 54-2 75 0l37 4h-150l38-4zm-75-10c6-2 18-2 25 0l12 5h-50l13-5zm200 0c6-2 18-2 25 0l12 5h-50l13-5zm-326-43c-44-22-86-48-93-57l-14-18 25 18c36 24 118 67 160 83l35 13h-16c-9 1-53-17-97-39zm428 9c36-17 73-37 82-46l18-16-7-10-6-10 10 6 11 7 6-17 7-17-16-15-15-15-33 13c-17 7-57 23-87 34l-55 20-80 5-80 4-79-26-79-27-51-34c-28-19-100-80-161-136-60-56-143-129-183-161l-73-58-76-36-77-37-98-5-98-5-63 13c-34 7-69 18-77 24l-15 11 14-17 13-18h-23l7-12 7-11-13 8-12 8-8-13-8-12-62 42c-82 56-68 34 17-26l65-47 65-24 65-23 72-6 71-6 68 16c125 29 181 67 401 269l131 120 73 48 72 47 70 16c159 36 291 3 443-112 37-29 70-52 73-52 2 0 4 30 4 68v67l-19 40-18 40-53 48-52 47-63 30c-35 17-69 30-76 30-8 0 15-14 51-31zm-601-137-44-47 45 40c25 22 47 41 49 43 2 1 2 4 0 7-3 2-25-17-50-43zm696 37c-4-6-5-12-2-15 2-3 7 2 10 11 7 17 1 20-8 4zm-796-125c-18-20-67-65-108-100l-74-64-70-35c-38-19-64-35-58-35 22 0 167 83 191 109 3 3 42 41 86 84 45 42 79 77 75 77s-23-16-42-36zm-969-5v-10l10 6c6 3 10 8 10 11 0 2-4 4-10 4-5 0-10-5-10-11zm1488-46c12-2 30-2 40 0l17 5-40-1h-40l23-4zm80-10c6-2 18-2 25 0l12 5h-50l13-5zm-190-10c7-3 16-2 19 1 4 3-2 6-13 5l-19-1 13-5zm270-13c24-11 56-29 71-39l28-20v-15c0-9-4-16-9-16-4 0-8-8-8-19v-19l-67 25-67 24-85 1h-86l-55-21c-80-30-138-70-227-154-112-105-232-208-283-244-47-31-145-73-216-92-23-6-47-18-54-26l-13-16 19-14 19-14-12-12-12-12-83 5-83 5-48 17c-27 10-51 15-54 12-3-2 28-15 68-27l74-23 90 1h90l80 27 80 27 65 43c36 24 116 90 179 147 175 160 221 198 283 229l56 29 64 11 65 10 59-11 59-11 65-31 65-32 59-58c32-32 61-55 64-53 2 3 7 37 10 75l5 70-26 43c-47 81-162 170-247 192l-25 6 43-20zm-348-10-15-10h12c6 0 15 5 18 10 8 12 4 12-15 0zM670 1555c24-25 46-45 48-45 9 0-73 88-83 89-5 1 11-19 35-44zm528 8c7-3 16-2 19 1 4 3-2 6-13 5l-19-1 13-5zm-180-10c6-2 18-2 25 0l12 5h-50l13-5zm130 0c6-2 18-2 25 0l12 5h-50l13-5zm846-131c-106-32-140-56-399-295l-117-108-51-29c-29-17-81-39-117-51l-65-20h-100l-101-1-63 22-64 21-115 65c-63 36-117 63-120 60-9-9 17-57 61-115 79-102 217-197 331-227l51-14h85c107 1 156 12 247 57l73 35 121 112c67 61 156 142 198 180l76 69 50 23 50 24h140l40-19 41-18 42-48 43-49 13 15c7 8 26 38 42 67l28 54-24 44-23 45-38 30c-20 16-63 41-94 55l-57 26-62 4-61 4-61-18zm20-326-37-37 6-42 6-42 31-27 30-28h26c14 0 38 7 54 15l30 15 15 30c8 16 15 40 15 54v26l-27 30-28 31-42 6-42 6-37-37zm-264-219c-13-7-30-24-38-37l-13-25 6-30 5-29 22-23 21-23h78l24 25 25 24v38l-1 38-13 17c-13 17-57 38-79 38-7 0-23-6-37-13z"/></g><g fill="#021d1b" transform="matrix(.1 0 0 -.1 0 300)"><path d="M2033 2073c15-2 37-2 50 0l22 4h-100l28-4zm10-200c15-2 39-2 55 0l27 4h-110l28-4zm-124-17c-25-6-57-19-72-29-15-9-27-14-27-10 0 5-16 8-35 9l-36 1 11-11c5-5 10-14 10-20v-9l-20 18-20 18-7-6-6-7h14l14-1-27-12c-15-7-53-37-85-67-31-30-67-62-79-70-13-9-40-31-61-51-21-19-53-45-71-58l-32-23 5-9 6-9-15 6-16 6v-22h-31l6-10 6-10h-19l2-17 1-17-25-8-25-8 28 4 27 3v-8c0-5-9-9-21-9h-20l6-10 6-9-28-7c-15-4-32-10-38-14-5-4-37-13-69-20l-59-12-66 5-66 5 65-11 64-10 71 12 70 12 55 25c73 33 128 77 295 229 77 70 171 148 208 174l69 45 66 17 67 18-25-1c-14 0-46-5-71-12zm-116-50 6-15-14 6-15 5 6 9c7 12 11 11 17-5zm-50-22c4-4 4-10 1-15l-5-8-14 5-15 6 6 9c6 11 18 12 27 3zm-23-28c0-3-4-8-10-11l-10-6v10c0 6 5 11 10 11 6 0 10-2 10-4zm413 107c9-2 23-2 30 0l12 5h-60l18-5zm78-17c65-25 117-55 184-106 36-27 68-50 71-50 2 0 4 18 4 39v40l-10 6-10 6v-35l-17 24c-22 33-33 39-51 32l-15-5 6 9 6 10-19 1c-11 1-22-2-25-7l-5-8-49 23c-27 14-62 27-78 30l-28 5 36-14zm195-83c-3-4-6-1-6 6v12l-9-6-10-5-7 11-7 12 11-7 12-7v13l1 13 10-18c6-10 8-21 5-24zm55 51 1-19 5 13c3 7 2 16-1 19-3 4-6-2-5-13zm-21-275 12-21-6-22-5-22-21-1-20-2-15 21-14 22-20 1-20 2 4-8c5-7-18-19-36-19h-10l5 8 5 9-12 1c-7 0-37 10-67 21s-68 20-85 20l-30-1 55-12c31-6 83-25 115-41l59-30 59-58c33-32 62-55 65-53 2 3 7 36 10 74l4 68-16 32c-9 18-19 32-22 32-2 0 0-9 6-21zm-427 4c9-2 25-2 35 0l17 5h-70l18-5zm-45-10c7-3 16-2 19 1 4 3-2 6-13 5l-19-1 13-5zm-70-21c-21-10-38-20-38-25 0-6 76 27 89 39 9 8-16 1-51-14zm-109-74c-30-23-56-45-59-49-3-3-54-52-115-109l-110-103-74-49c-40-26-70-48-65-48 28 0 165 108 324 255 41 39 95 87 120 107 62 51 45 48-21-4zm274-5c15-2 39-2 55 0l27 4h-110l28-4zm-55-10c7-3 16-2 19 1 4 3-2 6-13 5l-19-1 13-5zm177-9c22-8 49-23 59-34l19-19-17-26-18-27-26 9c-15 4-65 8-112 8l-85-1-59-29-60-28-80-77c-45-42-128-118-186-169l-105-92-90-45-90-44-78-15c-43-8-109-15-146-15h-67l-85 21-84 21-38 28c-54 39-157 166-157 193v8l22-11 23-11-19 15c-41 33-48 11-15-44 80-131 234-249 373-286l51-14h85c107 1 156 12 247 57l73 35 121 112c67 61 156 142 198 180l76 69 50 23 50 24h140l40-19 41-18 41-47 42-48 11 7c5 3 17 20 25 36l16 30-7 11-7 11 10-6 10-6 14 25 13 25-24 45-23 45-37 29c-42 33-137 80-160 79-8 0 3-7 25-15zm-282-24c-34-17-67-38-75-47l-13-17 32 22c18 13 56 34 85 47s48 24 42 24c-6 1-38-13-71-29zm-124-87-24-28 28 24c25 23 32 31 24 31-2 0-14-12-28-27zm-154-140c-55-52-126-115-159-139-32-24-54-44-48-44s32 17 59 38c50 41 262 241 253 241-3 0-50-43-105-96zm379-67-37-37 6-42 6-42 31-27 30-28h26c14 0 38 7 54 15l30 15 15 30c8 16 15 40 15 54v26l-27 30-28 31-42 6-42 6-37-37zm-679-26-6-10 15 6c18 7 21 14 7 14-6 0-13-4-16-10zm-575-24c0-3 9-10 20-16s20-8 20-6c0 3-9 10-20 16s-20 8-20 6zm57-37c7-7 15-10 18-7s-2 9-12 12l-18 7 12-12zm33-13c0-3 9-10 20-16s20-8 20-6c0 3-9 10-20 16s-20 8-20 6zm530-31c-14-8-20-14-14-15 5 0 19 7 30 15 24 18 16 19-16 0zm-85-30-40-13 20-1c11 0 34 6 50 14 38 17 22 17-30 0zm-222-22c9-2 23-2 30 0l12 5h-60l18-5zm105 0c12-2 32-2 45 0l22 4h-90l23-4zm572-36c-13-7-30-24-38-37l-13-25 6-30 5-29 22-23 21-23h78l24 25 25 24v38l-1 38-13 17c-13 17-57 38-79 38-7 0-23-6-37-13z"/></g></g></svg>